<?xml version="1.0" encoding="utf-8"?>
<!-- Generator: Adobe Illustrator 15.0.2, SVG Export Plug-In . SVG Version: 6.00 Build 0)  -->
<!DOCTYPE svg PUBLIC "-//W3C//DTD SVG 1.1//EN" "http://www.w3.org/Graphics/SVG/1.1/DTD/svg11.dtd">
<svg version="1.1" xmlns="http://www.w3.org/2000/svg" xmlns:xlink="http://www.w3.org/1999/xlink" x="0px" y="0px" width="612px"
	 height="792px" viewBox="0 0 612 792" enable-background="new 0 0 612 792" xml:space="preserve">
<g id="Layer_2">
	<circle fill="#FFFFFF" cx="306" cy="399.5" r="242.5"/>
</g>
<g id="Capa_1">
	<g>
		<g>
			<g>
				<path fill="#3B5998" d="M306,90C137.012,90,0,227.012,0,396s137.012,306,306,306s306-137.012,306-306
					C612,226.974,474.988,90,306,90z M385.101,395.961l-50.146,0.038l-0.038,183.599h-68.812V396h-45.899v-63.266l45.899-0.038
					l-0.077-37.255c0-51.637,13.999-83.04,74.778-83.04h50.644v63.303h-31.672c-23.676,0-24.823,8.835-24.823,25.321l-0.077,31.671
					h56.915L385.101,395.961z"/>
			</g>
		</g>
	</g>
</g>
</svg>
